<?xml version="1.0" encoding="UTF-8" standalone="no"?>
<svg width="1517px" height="1290px" viewBox="0 0 1517 1290" version="1.1" xmlns="http://www.w3.org/2000/svg" xmlns:xlink="http://www.w3.org/1999/xlink" xmlns:sketch="http://www.bohemiancoding.com/sketch/ns">
    <!-- Generator: Sketch 3.2.2 (9983) - http://www.bohemiancoding.com/sketch -->
    <title>Artboard 20</title>
    <desc>Created with Sketch.</desc>
    <defs></defs>
    <g id="Page-1" stroke="none" stroke-width="1" fill="none" fill-rule="evenodd" sketch:type="MSPage">
        <g id="Artboard-20" sketch:type="MSArtboardGroup">
            <g id="Imported-Layers" sketch:type="MSLayerGroup" transform="translate(130.000000, 77.000000)">
                <path d="M139.088,522.399 C137.693,539.247 136.977,556.307 136.977,573.551 C136.977,883.368 366.766,1134.523 650.225,1134.523 C933.682,1134.523 1163.47,883.368 1163.47,573.551 C1163.47,518.237 1156.141,464.795 1142.494,414.316 L139.088,522.399" id="Fill-1" fill="#7F4927" sketch:type="MSShapeGroup"></path>
                <path d="M312.712,534.333 C184.206,534.333 155.575,521.903 149.712,517.935 C154.537,513.052 178.821,496.168 295.315,472.17 C387.482,453.185 508.705,435.761 636.654,423.113 C759.039,411.013 877.33,404.35 969.737,404.35 C1098.241,404.35 1126.874,416.778 1132.737,420.748 C1127.91,425.631 1103.626,442.515 987.133,466.511 C894.966,485.498 773.743,502.92 645.795,515.57 C523.408,527.668 405.119,534.333 312.712,534.333" id="Fill-2" fill="#FFFFFF" sketch:type="MSShapeGroup"></path>
                <path d="M969.766,414.35 C1048.162,414.35 1088.226,419.057 1108.264,423.168 C1089.545,431.07 1051.569,443.416 975.715,458.628 C885.178,476.785 767.66,493.474 644.81,505.618 C522.741,517.687 404.799,524.333 312.711,524.333 C234.291,524.333 194.224,519.626 174.185,515.515 C192.903,507.613 230.879,495.267 306.734,480.054 C397.271,461.897 514.788,445.209 637.637,433.064 C759.692,420.997 877.634,414.351 969.755,414.35 L969.766,414.35 M969.737,394.35 C880.261,394.352 763.238,400.55 635.67,413.161 C358.176,440.594 135.71,487.986 138.777,519.013 C140.434,535.777 207.555,544.333 312.711,544.333 C402.188,544.333 519.209,538.134 646.778,525.522 C924.272,498.089 1146.739,450.696 1143.672,419.668 C1142.015,402.906 1074.893,394.348 969.737,394.35" id="Fill-3" fill="#7F4927" sketch:type="MSShapeGroup"></path>
                <path d="M769.347,435.864 C728.15,438.505 684.288,442.069 638.804,446.565 C439.874,466.232 274.481,497.379 231.387,521.574 C253.525,522.789 278.907,523.399 306.991,523.399 C396.471,523.399 513.466,517.202 641.055,504.589 C681.042,500.635 719.872,496.27 757.062,491.596 L769.347,435.864 M927.312,430.174 C893.378,430.174 854.444,431.25 811.87,433.414 L800.442,485.907 C903.343,471.828 990.916,455.58 1051.061,439.742 C1029.519,433.382 985.875,430.174 927.312,430.174" id="Fill-4" fill="#E6E6E6" sketch:type="MSShapeGroup"></path>
                <path d="M183.813,807.999 C219.635,903.177 274.258,970.535 337.64,1018.519 C271.96,963.321 218.859,891.151 183.813,807.999" id="Fill-5" fill="#E6E6E6" sketch:type="MSShapeGroup"></path>
                <path d="M139.088,522.399 L139.088,522.399 C138.579,638.191 155.2,731.974 183.813,807.999 C218.859,891.151 271.96,963.321 337.64,1018.519 C429.629,1088.16 540.053,1116.955 638.184,1130.627 C426.858,1081.283 254.248,544.317 253.917,543.291 C189.645,540.797 148.251,533.847 140.19,522.573 C139.823,522.515 139.455,522.457 139.088,522.399" id="Fill-6" fill="#724223" sketch:type="MSShapeGroup"></path>
                <path d="M140.19,522.573 C148.251,533.847 189.645,540.797 253.917,543.291 L253.917,543.289 C253.916,543.288 203.779,532.593 140.19,522.573" id="Fill-7" fill="#724223" sketch:type="MSShapeGroup"></path>
                <path d="M638.184,1130.627 C647.583,1132.822 657.073,1134.055 666.613,1134.231 C657.274,1133.158 647.788,1131.965 638.184,1130.627" id="Fill-8" fill="#724223" sketch:type="MSShapeGroup"></path>
                <path d="M450.786,521.523 L435.695,521.523 L311.15,244.987 L323.52,239.429 L450.786,521.523" id="Fill-9" fill="#808080" sketch:type="MSShapeGroup"></path>
                <path d="M746.1,171.982 C742.294,160.611 722.991,155.164 692.115,155.063 L692.117,155.063 L282.779,154.297 L23.567,383.696 C5.982,398.799 -2.261,411.754 0.967,421.4 C13.367,458.445 190.223,432.642 395.986,363.767 C601.749,294.893 758.5,209.028 746.1,171.982" id="Fill-10" fill="#3ABBE8" sketch:type="MSShapeGroup"></path>
                <path d="M12.394,394.35 L12.394,394.35 C12.392,394.353 12.396,394.35 12.398,394.347" id="Fill-11" fill="#E6E6E6" sketch:type="MSShapeGroup"></path>
                <path d="M282.779,154.297 L282.779,154.297 C282.779,154.297 72.189,344.525 12.394,394.35 C12.396,394.35 12.392,394.353 12.389,394.357 C-13.305,427.276 11.846,437.439 52.732,437.439 C118.77,437.439 225.837,410.905 225.837,410.905 L282.779,154.297" id="Fill-12" fill="#34A8D1" sketch:type="MSShapeGroup"></path>
                <path d="M799.865,488.56 L756.585,493.763 L855.24,46.169 L1094.553,0.454 L1102.059,39.743 L888.703,80.5 L799.865,488.56" id="Fill-13" fill="#E6E6E6" sketch:type="MSShapeGroup"></path>
                <path d="M799.865,488.56 L787.412,490.057 L787.411,490.058 L799.865,488.56" id="Fill-14" fill="#724223" sketch:type="MSShapeGroup"></path>
                <path d="M874.823,71.822 L787.411,490.058 L799.865,488.56 L888.703,80.5 L874.823,71.822" id="Fill-15" fill="#CFCFCF" sketch:type="MSShapeGroup"></path>
                <path d="M1103.154,18.77 C1105.068,27.527 1103.421,35.326 1099.477,36.188 C1095.531,37.05 1090.782,30.649 1088.868,21.891 C1086.955,13.134 1088.602,5.334 1092.546,4.473 C1096.491,3.61 1101.24,10.011 1103.154,18.77" id="Fill-16" fill="#FFFFFF" sketch:type="MSShapeGroup"></path>
                <path d="M1103.154,18.77 L1099.246,19.622 C1099.729,21.831 1099.952,23.959 1099.952,25.836 C1099.961,28.211 1099.571,30.193 1099.088,31.308 C1098.854,31.868 1098.612,32.193 1098.505,32.297 L1098.453,32.344 L1098.456,32.348 L1098.454,32.344 L1098.453,32.344 L1098.456,32.348 L1098.454,32.344 L1098.728,32.776 L1098.622,32.281 L1098.454,32.344 L1098.728,32.776 L1098.622,32.281 L1098.627,32.279 L1098.751,32.847 L1098.751,32.265 L1098.627,32.279 L1098.751,32.847 L1098.751,32.265 L1098.751,32.545 L1098.804,32.27 L1098.751,32.265 L1098.751,32.545 L1098.804,32.27 C1098.804,32.27 1098.722,32.253 1098.568,32.169 C1098.298,32.028 1097.82,31.674 1097.289,31.084 C1096.488,30.203 1095.576,28.815 1094.776,27.089 C1093.972,25.359 1093.268,23.292 1092.777,21.038 C1092.293,18.828 1092.069,16.699 1092.069,14.822 C1092.061,12.447 1092.452,10.465 1092.933,9.351 C1093.165,8.791 1093.41,8.466 1093.516,8.364 L1093.566,8.316 L1093.563,8.313 L1093.566,8.316 L1093.563,8.313 L1093.566,8.316 L1093.291,7.882 L1093.398,8.38 L1093.566,8.316 L1093.291,7.882 L1093.398,8.38 L1093.401,8.38 L1093.27,7.785 L1093.27,8.394 L1093.401,8.38 L1093.27,7.785 L1093.27,8.394 L1093.27,8.112 L1093.217,8.39 L1093.27,8.394 L1093.27,8.112 L1093.217,8.39 C1093.217,8.39 1093.297,8.407 1093.452,8.49 C1093.723,8.631 1094.199,8.986 1094.73,9.576 C1095.533,10.457 1096.446,11.844 1097.245,13.572 C1098.05,15.3 1098.754,17.368 1099.247,19.624 L1103.154,18.77 L1107.062,17.915 C1106.056,13.352 1104.392,9.34 1102.247,6.222 C1101.167,4.664 1099.964,3.317 1098.521,2.254 C1097.797,1.727 1097.009,1.271 1096.133,0.936 C1095.258,0.603 1094.288,0.395 1093.27,0.395 C1092.744,0.395 1092.211,0.451 1091.69,0.565 L1091.693,0.565 C1090.133,0.899 1088.778,1.753 1087.79,2.776 C1087.042,3.545 1086.461,4.408 1085.993,5.317 C1085.292,6.684 1084.831,8.167 1084.523,9.756 C1084.217,11.343 1084.071,13.039 1084.071,14.822 C1084.071,17.323 1084.36,19.997 1084.96,22.745 C1085.965,27.307 1087.628,31.319 1089.772,34.437 C1090.854,35.995 1092.058,37.344 1093.5,38.405 C1094.222,38.933 1095.011,39.388 1095.888,39.723 C1096.763,40.056 1097.734,40.266 1098.751,40.265 C1099.271,40.265 1099.804,40.211 1100.325,40.098 L1100.331,40.096 C1101.892,39.76 1103.245,38.905 1104.233,37.883 C1104.981,37.113 1105.56,36.25 1106.028,35.342 C1106.728,33.975 1107.19,32.492 1107.498,30.903 C1107.804,29.316 1107.951,27.619 1107.952,25.836 C1107.951,23.336 1107.661,20.662 1107.062,17.916 L1103.154,18.77" id="Fill-17" fill="#E6E6E6" sketch:type="MSShapeGroup"></path>
                <path d="M1086.594,28.264 L874.823,71.822 L888.703,80.5 C888.703,80.5 1050.355,49.62 1099.547,40.223 C1099.28,40.251 1099.014,40.265 1098.751,40.265 L1098.741,40.265 C1097.727,40.265 1096.76,40.055 1095.888,39.723 C1095.011,39.388 1094.222,38.933 1093.5,38.405 C1092.058,37.344 1090.854,35.995 1089.772,34.437 C1088.544,32.651 1087.473,30.572 1086.594,28.264" id="Fill-18" fill="#CFCFCF" sketch:type="MSShapeGroup"></path>
                <path d="M1101.594,39.698 C1101.319,39.813 1101.034,39.913 1100.741,39.995 C1101.191,39.908 1101.63,39.825 1102.059,39.743 C1101.902,39.731 1101.747,39.715 1101.594,39.698" id="Fill-19" fill="#CFCFCF" sketch:type="MSShapeGroup"></path>
                <path d="M1090.575,27.445 L1086.594,28.264 C1087.473,30.572 1088.544,32.651 1089.772,34.437 C1090.854,35.995 1092.058,37.344 1093.5,38.405 C1094.222,38.933 1095.011,39.388 1095.888,39.723 C1096.76,40.055 1097.727,40.265 1098.741,40.265 L1098.751,40.265 C1099.014,40.265 1099.28,40.251 1099.547,40.223 C1099.953,40.145 1100.35,40.069 1100.741,39.995 C1101.034,39.913 1101.319,39.813 1101.594,39.698 C1092.484,38.629 1090.575,27.445 1090.575,27.445" id="Fill-20" fill="#CFCFCF" sketch:type="MSShapeGroup"></path>
            </g>
        </g>
    </g>
</svg>